<svg xmlns="http://www.w3.org/2000/svg" viewBox="0 0 800 600" width="800" height="600">
  <defs>
    <linearGradient id="g1" x1="0" x2="1">
      <stop offset="0" stop-color="#0b3d91" />
      <stop offset="1" stop-color="#d4af37" />
    </linearGradient>
  </defs>
  <rect width="100%" height="100%" fill="none" />
  <g transform="translate(60,40)">
    <rect x="20" y="80" width="320" height="200" rx="12" fill="#fff" stroke="#e6e6e6" />
    <rect x="40" y="100" width="280" height="24" rx="6" fill="url(#g1)" />
    <rect x="40" y="140" width="240" height="12" rx="6" fill="#f3f4f6" />
    <g transform="translate(380,20)">
      <circle cx="80" cy="120" r="80" fill="#0b3d91" opacity="0.95" />
      <path d="M40 120c0-22 18-40 40-40s40 18 40 40-18 40-40 40-40-18-40-40z" fill="#fff" opacity="0.95"/>
    </g>
    <g transform="translate(40,300)">
      <rect x="0" y="0" width="420" height="12" rx="6" fill="#f3f4f6" />
      <rect x="0" y="30" width="300" height="12" rx="6" fill="#f3f4f6" />
    </g>
  </g>
</svg>